<svg id="Layer_1" data-name="Layer 1" xmlns="http://www.w3.org/2000/svg" viewBox="0 0 306.87 260.56"><defs><style>.cls-1{fill:#ea4747;}</style></defs><path class="cls-1" d="M56.13,226.37l-.06-10.23-4.88,8.21H47.86L43,216.49v9.88h-6.9V203.93h6.22l7.31,11.95,7.12-11.95H63L63,226.37Z"/><path class="cls-1" d="M80.14,203.93h7.57v22.44H80.14Z"/><path class="cls-1" d="M127,203.93v22.44h-6.22l-8.53-10.2v10.2h-7.37V203.93h6.22l8.53,10.19V203.93Z"/><path class="cls-1" d="M162.73,220.66v5.71H144.07V203.93h18.24v5.7h-10.8v2.63H161v5.45h-9.49v2.95Z"/><path class="cls-1" d="M188.73,220.73h-2v5.64h-7.57V203.93h10.81a13.34,13.34,0,0,1,5.42,1,7.77,7.77,0,0,1,4.8,7.44,7.92,7.92,0,0,1-1.09,4.2,7.57,7.57,0,0,1-3.14,2.85l4.72,6.93h-8.08Zm3-10.28a3.35,3.35,0,0,0-2.3-.69h-2.76V215h2.76a3.35,3.35,0,0,0,2.3-.69,2.83,2.83,0,0,0,0-3.88Z"/><path class="cls-1" d="M231.11,222.46h-8.52l-1.51,3.91h-7.7l9.81-22.44h7.44l9.81,22.44h-7.82ZM229,217l-2.18-5.65L224.67,217Z"/><path class="cls-1" d="M255.13,203.93h7.56V220.5h10.13v5.87H255.13Z"/><path class="cls-1" d="M34.05,34.19V186h66.39v-42l49.13,40.95.08.05a4.78,4.78,0,0,0,.59.41l0,0a3.93,3.93,0,0,0,.66.3l.21.08a4.39,4.39,0,0,0,.52.13l.21,0a3.84,3.84,0,0,0,1.46,0l.21,0a4.39,4.39,0,0,0,.52-.13l.22-.08a4.22,4.22,0,0,0,.65-.3l0,0a4.78,4.78,0,0,0,.59-.41l.08-.05,49.13-40.95v42h66.39V34.19ZM207.8,43.67l45.53,37.94H211.24L165.71,43.67Zm-50.35,5.47,36.47,30.38a1.19,1.19,0,0,1-.76,2.09h-81.1a1.18,1.18,0,0,1-.75-2.09l36.46-30.38A7.55,7.55,0,0,1,157.45,49.14Zm-60-5.47h42.09L94,81.61H51.89ZM51.89,91.1h36.7a7.81,7.81,0,0,1,6.7,3.79L127.14,148a2.3,2.3,0,0,1-3.45,3Zm96.94,74.58-43-71.6a2,2,0,0,1,1.69-3h90.1a2,2,0,0,1,1.69,3l-43,71.6A4.4,4.4,0,0,1,148.83,165.68ZM178.08,148l31.85-53.09a7.82,7.82,0,0,1,6.7-3.79h36.7l-71.8,59.83A2.3,2.3,0,0,1,178.08,148Z"/></svg>